<?xml version="1.0" encoding="UTF-8"?><svg id="V2" xmlns="http://www.w3.org/2000/svg" viewBox="0 0 712.5 662.89"><defs><style>.cls-1{fill:#191919;font-size:16px;}.cls-1,.cls-2{font-family:Montserrat-Regular, Montserrat;}.cls-3{letter-spacing:.05em;}.cls-4{letter-spacing:-.02em;}.cls-5{letter-spacing:-.02em;}.cls-6{letter-spacing:-.02em;}.cls-7{letter-spacing:0em;}.cls-8{letter-spacing:.02em;}.cls-9{letter-spacing:0em;}.cls-10{letter-spacing:-.02em;}.cls-2{fill:#535a5f;font-size:12px;}.cls-11{letter-spacing:.04em;}.cls-12{letter-spacing:0em;}.cls-13{fill:#01562f;}.cls-13,.cls-14,.cls-15,.cls-16{stroke:#000;stroke-width:.5px;}.cls-13,.cls-14,.cls-15,.cls-16,.cls-17,.cls-18{stroke-miterlimit:10;}.cls-14{fill:#018047;}.cls-15{fill:#fcee21;}.cls-16{fill:#b30909;}.cls-19{letter-spacing:-.02em;}.cls-20{letter-spacing:-.02em;}.cls-17{stroke-width:2px;}.cls-17,.cls-18{fill:none;stroke:#535a5f;}.cls-18{stroke-width:2px;}.cls-21{letter-spacing:0em;}.cls-22{letter-spacing:.02em;}.cls-23{letter-spacing:.01em;}.cls-24{letter-spacing:-.01em;}.cls-25{letter-spacing:0em;}.cls-26{letter-spacing:0em;}.cls-27{letter-spacing:-.02em;}.cls-28{letter-spacing:-.01em;}.cls-29{letter-spacing:-.01em;}</style></defs><g id="Layer_3-2"><rect class="cls-13" x="202.44" y="247.1" width="200" height="160"/><rect class="cls-14" x="202.44" y="71.14" width="200" height="160"/><rect class="cls-14" x="418.46" y="247.1" width="200" height="160"/><polygon class="cls-16" points="518.43 231.14 518.43 151.14 418.43 151.14 418.43 71.14 618.43 71.14 618.43 231.14 518.43 231.14"/><rect class="cls-15" x="418.43" y="151.14" width="100" height="80"/></g><g id="Layer_2-2"><text class="cls-1" transform="translate(265.35 513.74)"><tspan x="0" y="0">In</tspan><tspan class="cls-19" x="15.66" y="0">t</tspan><tspan x="21.86" y="0">elle</tspan><tspan class="cls-25" x="49.79" y="0">c</tspan><tspan x="58.9" y="0">tual </tspan><tspan class="cls-5" x="94.1" y="0">P</tspan><tspan class="cls-29" x="105.21" y="0">r</tspan><tspan x="111.42" y="0">ope</tspan><tspan class="cls-23" x="141.97" y="0">r</tspan><tspan class="cls-26" x="148.62" y="0">t</tspan><tspan x="154.96" y="0">y (I</tspan><tspan class="cls-24" x="177.92" y="0">P</tspan><tspan x="189.23" y="0">) </tspan></text><text class="cls-2" transform="translate(255.4 448.73)"><tspan x="0" y="0">Public IP (Open </tspan><tspan x="-35.15" y="14.4">Sou</tspan><tspan class="cls-28" x="-12.17" y="14.4">r</tspan><tspan class="cls-9" x="-7.51" y="14.4">c</tspan><tspan x="-.86" y="14.4">e</tspan><tspan class="cls-6" x="6.38" y="14.4">/</tspan><tspan x="10.16" y="14.4">C</tspan><tspan class="cls-28" x="18.79" y="14.4">r</tspan><tspan class="cls-27" x="23.45" y="14.4">e</tspan><tspan x="30.52" y="14.4">ati</tspan><tspan class="cls-27" x="45.7" y="14.4">v</tspan><tspan x="52.02" y="14.4">e </tspan><tspan class="cls-4" x="62.41" y="14.4">C</tspan><tspan x="70.76" y="14.4">om</tspan><tspan class="cls-7" x="91.02" y="14.4">m</tspan><tspan x="103.78" y="14.4">ons)</tspan></text><text class="cls-2" transform="translate(99.06 147.47)"><tspan class="cls-10" x="0" y="0">F</tspan><tspan x="7.38" y="0">o</tspan><tspan class="cls-24" x="14.9" y="0">r</tspan><tspan x="19.58" y="0">-</tspan><tspan class="cls-4" x="24.17" y="0">P</tspan><tspan class="cls-28" x="32.51" y="0">r</tspan><tspan x="37.16" y="0">ofit</tspan><tspan class="cls-4" x="-5.22" y="14.4">C</tspan><tspan x="3.13" y="14.4">om</tspan><tspan class="cls-12" x="23.39" y="14.4">p</tspan><tspan x="31.49" y="14.4">anies</tspan></text><text class="cls-2" transform="translate(89.15 316.23)"><tspan x="0" y="0">G</tspan><tspan class="cls-27" x="9.28" y="0">ov</tspan><tspan x="22.94" y="0">e</tspan><tspan class="cls-21" x="30.19" y="0">r</tspan><tspan x="34.91" y="0">n</tspan><tspan class="cls-7" x="43.03" y="0">m</tspan><tspan x="55.79" y="0">ent/</tspan><tspan x="10.6" y="14.4">Nonp</tspan><tspan class="cls-28" x="44.14" y="14.4">r</tspan><tspan x="48.8" y="14.4">ofit</tspan><tspan class="cls-4" x="5.9" y="28.8">C</tspan><tspan x="14.25" y="28.8">om</tspan><tspan class="cls-12" x="34.51" y="28.8">p</tspan><tspan x="42.6" y="28.8">anies</tspan></text><text class="cls-2" transform="translate(484.24 456.17)"><tspan class="cls-4" x="0" y="0">P</tspan><tspan class="cls-28" x="8.34" y="0">r</tspan><tspan x="13" y="0">op</tspan><tspan class="cls-21" x="28.66" y="0">r</tspan><tspan x="33.37" y="0">ie</tspan><tspan class="cls-20" x="43.85" y="0">t</tspan><tspan x="48.49" y="0">e</tspan><tspan class="cls-22" x="55.74" y="0">r</tspan><tspan x="60.73" y="0">y</tspan></text><line class="cls-18" x1="64.65" y1="486.2" x2="688.65" y2="486.2"/><line class="cls-17" x1="64.98" y1="39.76" x2="64.98" y2="486.76"/><text class="cls-1" transform="translate(46.07 324.81) rotate(-90)"><tspan class="cls-3" x="0" y="0">O</tspan><tspan class="cls-11" x="14.22" y="0">r</tspan><tspan class="cls-3" x="21.23" y="0">ganization </tspan><tspan class="cls-8" x="119.05" y="0">T</tspan><tspan class="cls-3" x="128.49" y="0">ype</tspan></text><g id="Red"><circle class="cls-16" cx="524.78" cy="618.61" r="18.5"/></g><g id="Yellow"><circle class="cls-15" cx="288.32" cy="618.21" r="18.5"/></g><g id="Green"><path class="cls-14" d="M86.23,617.31v18.5c10.15,0,18.5-8.35,18.5-18.5,0-10.15-8.35-18.5-18.5-18.5v18.5Z"/><path class="cls-13" d="M82.48,617.31v18.5c-10.15,0-18.5-8.35-18.5-18.5s8.35-18.5,18.5-18.5v18.5Z"/></g></g></svg>