<?xml version="1.0" encoding="UTF-8"?><svg id="Mobile" xmlns="http://www.w3.org/2000/svg" viewBox="0 0 500.8 461.98"><defs><style>.cls-1{letter-spacing:-.01em;}.cls-2{letter-spacing:0em;}.cls-3{letter-spacing:.05em;}.cls-4{letter-spacing:-.02em;}.cls-5{letter-spacing:-.02em;}.cls-6{letter-spacing:-.02em;}.cls-7{letter-spacing:.02em;}.cls-8{letter-spacing:0em;}.cls-9{letter-spacing:0em;}.cls-10{letter-spacing:-.01em;}.cls-11{letter-spacing:.04em;}.cls-12{fill:#01562f;}.cls-12,.cls-13,.cls-14,.cls-15{stroke:#000;stroke-width:.5px;}.cls-12,.cls-13,.cls-14,.cls-15,.cls-16,.cls-17{stroke-miterlimit:10;}.cls-13{fill:#018047;}.cls-14{fill:#fcee21;}.cls-18{letter-spacing:-.01em;}.cls-19{letter-spacing:-.01em;}.cls-20{letter-spacing:-.02em;}.cls-15{fill:#b30909;}.cls-21{letter-spacing:-.02em;}.cls-22{letter-spacing:-.02em;}.cls-23{fill:#191919;font-size:19px;}.cls-23,.cls-24{font-family:Montserrat-Regular, Montserrat;}.cls-16{stroke-width:2px;}.cls-16,.cls-17{fill:none;stroke:#535a5f;}.cls-17{stroke-width:2px;}.cls-25{letter-spacing:0em;}.cls-26{letter-spacing:.02em;}.cls-24{fill:#535a5f;font-size:15px;}.cls-27{letter-spacing:.02em;}.cls-28{letter-spacing:0em;}.cls-29{letter-spacing:0em;}.cls-30{letter-spacing:-.02em;}.cls-31{letter-spacing:-.01em;}.cls-32{letter-spacing:-.01em;}.cls-33{letter-spacing:-.01em;}</style></defs><g id="Layer_3_copy"><rect class="cls-12" x="185.19" y="173.62" width="127.36" height="127.34"/><rect class="cls-13" x="185.19" y="31.45" width="127.36" height="127.34"/><rect class="cls-13" x="327.33" y="173.62" width="127.36" height="127.34"/><polygon class="cls-15" points="391.01 158.79 391.01 95.12 327.33 95.12 327.33 31.45 454.69 31.45 454.69 158.79 391.01 158.79"/><rect class="cls-14" x="327.33" y="94.8" width="63.68" height="63.67"/></g><g id="Layer_2_copy"><text class="cls-23" transform="translate(147.93 437.72)"><tspan x="0" y="0">In</tspan><tspan class="cls-22" x="18.6" y="0">t</tspan><tspan x="25.95" y="0">elle</tspan><tspan class="cls-29" x="59.13" y="0">c</tspan><tspan x="69.94" y="0">tual </tspan><tspan class="cls-4" x="111.74" y="0">P</tspan><tspan class="cls-32" x="124.94" y="0">r</tspan><tspan x="132.31" y="0">ope</tspan><tspan class="cls-27" x="168.58" y="0">r</tspan><tspan class="cls-1" x="176.49" y="0">t</tspan><tspan x="184.01" y="0">y (I</tspan><tspan class="cls-19" x="211.27" y="0">P</tspan><tspan x="224.71" y="0">) </tspan></text><text class="cls-24" transform="translate(215.49 328.69)"><tspan x="0" y="0">Public IP </tspan><tspan x="-20.5" y="18">(Open Sou</tspan><tspan class="cls-33" x="59.06" y="18">r</tspan><tspan class="cls-9" x="64.88" y="18">c</tspan><tspan x="73.19" y="18">e/</tspan><tspan x="2.7" y="36">C</tspan><tspan class="cls-33" x="13.48" y="36">r</tspan><tspan class="cls-30" x="19.3" y="36">e</tspan><tspan x="28.14" y="36">ati</tspan><tspan class="cls-10" x="47.11" y="36">v</tspan><tspan x="55.02" y="36">e </tspan><tspan class="cls-5" x="-8.38" y="54">C</tspan><tspan x="2.06" y="54">om</tspan><tspan class="cls-8" x="27.38" y="54">m</tspan><tspan x="43.33" y="54">ons)</tspan></text><text class="cls-24" transform="translate(77.33 91.17)"><tspan class="cls-20" x="0" y="0">F</tspan><tspan x="9.23" y="0">o</tspan><tspan class="cls-18" x="18.63" y="0">r</tspan><tspan x="24.48" y="0">-</tspan><tspan class="cls-6" x="30.21" y="0">P</tspan><tspan class="cls-31" x="40.63" y="0">r</tspan><tspan x="46.46" y="0">ofit</tspan><tspan class="cls-5" x="0" y="18">C</tspan><tspan x="10.44" y="18">om</tspan><tspan class="cls-2" x="35.76" y="18">p</tspan><tspan x="45.88" y="18">anies</tspan></text><text class="cls-24" transform="translate(77.7 223.36)"><tspan x="0" y="0">G</tspan><tspan class="cls-30" x="11.59" y="0">ov</tspan><tspan x="28.68" y="0">e</tspan><tspan class="cls-28" x="37.74" y="0">r</tspan><tspan x="43.63" y="0">n</tspan><tspan class="cls-8" x="53.79" y="0">m</tspan><tspan x="69.73" y="0">ent</tspan><tspan x="0" y="18">/ Nonp</tspan><tspan class="cls-33" x="50.88" y="18">r</tspan><tspan x="56.7" y="18">ofit</tspan><tspan class="cls-5" x="0" y="36">C</tspan><tspan x="10.44" y="36">om</tspan><tspan class="cls-2" x="35.76" y="36">p</tspan><tspan x="45.88" y="36">anies</tspan></text><text class="cls-24" transform="translate(348.23 356.08)"><tspan class="cls-5" x="0" y="0">P</tspan><tspan class="cls-33" x="10.43" y="0">r</tspan><tspan x="16.25" y="0">op</tspan><tspan class="cls-25" x="35.82" y="0">r</tspan><tspan x="41.71" y="0">ie</tspan><tspan class="cls-21" x="54.81" y="0">t</tspan><tspan x="60.61" y="0">e</tspan><tspan class="cls-26" x="69.67" y="0">r</tspan><tspan x="75.91" y="0">y</tspan></text><line class="cls-17" x1="61.34" y1="405.51" x2="466.05" y2="405.51"/><line class="cls-16" x1="62.34" y1="29.99" x2="62.34" y2="405.04"/><text class="cls-23" transform="translate(41.88 312.73) rotate(-90)"><tspan class="cls-3" x="0" y="0">O</tspan><tspan class="cls-11" x="16.89" y="0">r</tspan><tspan class="cls-3" x="25.21" y="0">ganization </tspan><tspan class="cls-7" x="141.38" y="0">T</tspan><tspan class="cls-3" x="152.59" y="0">ype</tspan></text></g></svg>