<svg width="80" height="80" viewBox="0 0 80 80" fill="none" xmlns="http://www.w3.org/2000/svg">
<circle cx="40" cy="40" r="40" fill="#F79E02"/>
<rect x="42.1367" y="47.5787" width="9.10954" height="24.6374" rx="4.55477" transform="rotate(-45 42.1367 47.5787)" fill="white"/>
<circle cx="35" cy="34" r="18.5" fill="#F79E02" stroke="white" stroke-width="3"/>
<circle cx="34.2439" cy="27.385" r="4.24393" stroke="white" stroke-width="2"/>
<mask id="path-5-inside-1" fill="white">
<path d="M35.0323 42.6047H34.7701H28.2152C27.4286 42.6047 25.8555 42.0804 25.8555 39.9828C25.8555 37.3608 26.9043 33.4279 32.4104 33.6901C33.1859 34.0778 34.32 34.1968 34.9012 34.2125C35.4825 34.1968 36.6165 34.0778 37.3921 33.6901C42.8982 33.4279 43.947 37.3608 43.947 39.9828C43.947 42.0804 42.3738 42.6047 41.5872 42.6047H35.0323Z"/>
</mask>
<path d="M34.9012 34.2125L34.9284 33.2129L34.9012 33.2122L34.8741 33.2129L34.9012 34.2125ZM34.8741 33.2129C34.8347 33.214 34.7999 33.2144 34.7701 33.2144V35.2144C34.8197 35.2144 34.8727 35.2137 34.9284 35.2122L34.8741 33.2129ZM34.8741 35.2122C34.9298 35.2137 34.9828 35.2144 35.0323 35.2144V33.2144C35.0026 33.2144 34.9678 33.214 34.9284 33.2129L34.8741 35.2122ZM37.3921 33.6901L37.297 31.6923L36.8753 31.7124L36.4977 31.9012L37.3921 33.6901ZM34.9012 34.2125L34.847 36.2118L34.9012 36.2133L34.9555 36.2118L34.9012 34.2125ZM32.4104 33.6901L33.3047 31.9012L32.9272 31.7124L32.5055 31.6923L32.4104 33.6901ZM34.7701 44.6047H35.0323V40.6047H34.7701V44.6047ZM35.0323 44.6047H41.5872V40.6047H35.0323V44.6047ZM41.5872 44.6047C42.3464 44.6047 43.4019 44.3697 44.3115 43.6421C45.308 42.8449 45.947 41.5991 45.947 39.9828H41.947C41.947 40.253 41.8976 40.3863 41.8749 40.4352C41.8532 40.4819 41.8325 40.5028 41.8127 40.5186C41.786 40.54 41.7426 40.5648 41.6826 40.5838C41.6179 40.6043 41.5761 40.6047 41.5872 40.6047V44.6047ZM45.947 39.9828C45.947 38.4707 45.6556 36.3316 44.3393 34.5615C42.9251 32.6596 40.596 31.5352 37.297 31.6923L37.4872 35.6878C39.6943 35.5827 40.6427 36.2937 41.1294 36.9483C41.7141 37.7345 41.947 38.8729 41.947 39.9828H45.947ZM36.4977 31.9012C36.3541 31.973 36.0885 32.0571 35.7254 32.1214C35.3806 32.1824 35.051 32.2077 34.847 32.2133L34.9555 36.2118C35.6068 36.1941 37.1053 36.0695 38.2865 35.479L36.4977 31.9012ZM34.7701 40.6047H28.2152V44.6047H34.7701V40.6047ZM28.2152 40.6047C28.2264 40.6047 28.1846 40.6043 28.1198 40.5838C28.0599 40.5648 28.0164 40.54 27.9898 40.5186C27.97 40.5028 27.9493 40.4819 27.9276 40.4352C27.9049 40.3863 27.8555 40.253 27.8555 39.9828H23.8555C23.8555 41.5991 24.4945 42.8449 25.491 43.6421C26.4005 44.3697 27.4561 44.6047 28.2152 44.6047V40.6047ZM27.8555 39.9828C27.8555 38.8729 28.0884 37.7345 28.6731 36.9483C29.1598 36.2937 30.1082 35.5827 32.3152 35.6878L32.5055 31.6923C29.2064 31.5352 26.8774 32.6596 25.4632 34.5615C24.1469 36.3316 23.8555 38.4707 23.8555 39.9828H27.8555ZM31.516 35.479C32.6972 36.0695 34.1957 36.1941 34.847 36.2118L34.9555 32.2133C34.7515 32.2077 34.4218 32.1824 34.0771 32.1214C33.7139 32.0571 33.4484 31.973 33.3047 31.9012L31.516 35.479Z" fill="white" mask="url(#path-5-inside-1)"/>
</svg>
