<svg width="80" height="80" viewBox="0 0 80 80" fill="none" xmlns="http://www.w3.org/2000/svg">
<circle cx="40" cy="40" r="40" fill="#F79E02"/>
    <svg width="80" height="80" viewBox="-18 -13 80 80" fill="none">
<path d="M18.0549 49.8792H28.956" stroke="white" stroke-width="2"/>
<path d="M11.5494 49.8792H15.7692" stroke="white" stroke-width="2"/>
<path d="M25.8647 1.95815C25.0131 1.39056 22.3749 1 20.1938 1C8.85199 1.08586 1 10.681 1 19.84C1 29.8713 11.0331 38.5941 11.0331 38.5941V42.9556M35.4615 30.7436L28.9182 38.5941V42.9556M28.9182 42.9556H11.0331M28.9182 42.9556V46.4447M11.0331 42.9556V49.9338C11.0331 49.9338 15.8316 56.912 20.1938 56.9121C24.556 56.9121 28.9182 49.9338 28.9182 49.9338V46.4447M28.9182 46.4447H18.0127" stroke="white" stroke-width="2"/>
<path d="M26.3187 53.3956H14.011" stroke="white" stroke-width="2"/>
<path d="M15.7692 46.5385H11.022" stroke="white" stroke-width="2"/>
<path d="M41.1455 14.1767C41.1455 16.5867 39.1918 18.5404 36.7818 18.5404C34.3718 18.5404 32.4182 16.5867 32.4182 14.1767C32.4182 11.7668 34.3718 9.81311 36.7818 9.81311C39.1918 9.81311 41.1455 11.7668 41.1455 14.1767Z" stroke="white" stroke-width="2"/>
<path d="M45.86 17.8884C46.3497 17.4955 48.2313 17.8691 48.6521 17.4322C48.9692 17.1038 49.0015 15.0997 48.9953 14.7503C49.0077 14.4003 49.0188 12.3961 48.7092 12.0604C48.2977 11.6154 46.4086 11.948 45.9271 11.5446L45.412 10.2505C45.4852 9.62677 47.0845 8.56855 47.077 7.96279C47.0714 7.50598 45.685 6.05861 45.4349 5.81345C45.1979 5.55587 43.796 4.12277 43.3405 4.10229C42.7354 4.0756 41.6258 5.64028 41.0002 5.6918L39.5176 5.06307C39.1205 4.57772 39.4729 2.69278 39.0317 2.27632C38.6991 1.96288 36.6952 1.95171 36.3458 1.9604C35.9964 1.95171 33.9919 1.96288 33.6605 2.27632C33.2199 2.69278 33.5724 4.57772 33.174 5.06307L31.8856 5.59311C31.2607 5.52732 30.1858 3.93844 29.5795 3.95271C29.1234 3.96264 27.6911 5.36595 27.4484 5.61732C27.1934 5.85689 25.7766 7.2751 25.7604 7.73128C25.7399 8.33642 27.3169 9.42816 27.3758 10.0544L26.8322 11.3373C26.3413 11.7289 24.4609 11.3565 24.0395 11.7922C23.723 12.1212 23.6908 14.1253 23.6957 14.4754C23.6833 14.8248 23.6715 16.8289 23.9818 17.1647C24.3933 17.6109 26.2817 17.2782 26.7633 17.6817L27.279 18.9757C27.2064 19.5995 25.6071 20.6571 25.6146 21.2635C25.6202 21.7203 27.0066 23.1671 27.256 23.4128C27.4931 23.6704 28.895 25.1029 29.3505 25.124C29.9562 25.1513 31.0652 23.586 31.6914 23.5339L33.1734 24.1632C33.5718 24.6498 33.2193 26.5347 33.6599 26.9512C33.9913 27.2646 35.9958 27.2746 36.3458 27.2659C36.6952 27.2746 38.6997 27.2646 39.0317 26.9512C39.4729 26.5347 39.1198 24.6498 39.5176 24.1632L40.806 23.6332C41.4309 23.6996 42.5051 25.2878 43.1115 25.2736C43.5682 25.263 45.0005 23.8609 45.2432 23.6083C45.4976 23.3681 46.9157 21.9512 46.9312 21.495C46.9517 20.8892 45.3754 19.7963 45.3164 19.1713L45.86 17.8884Z" stroke="white" stroke-width="2"/>
<circle cx="19.6374" cy="5.92307" r="0.879121" fill="white"/>
<circle cx="15.7692" cy="6.45053" r="0.879121" fill="white"/>
<circle cx="12.4286" cy="8.20883" r="0.879121" fill="white"/>
<circle cx="9.43955" cy="10.3187" r="0.879121" fill="white"/>
<circle cx="7.15384" cy="13.1319" r="0.879121" fill="white"/>
<circle cx="5.57144" cy="16.6484" r="0.879121" fill="white"/>
<circle cx="5.04395" cy="20.5165" r="0.879121" fill="white"/>
<circle cx="5.57144" cy="24.3846" r="0.879121" fill="white"/>
<circle cx="7.32968" cy="27.7253" r="0.879121" fill="white"/>
<circle cx="9.43955" cy="30.7143" r="0.879121" fill="white"/>
</svg>
  </svg>
