<svg width="80" height="80" viewBox="0 0 80 80" fill="none" xmlns="http://www.w3.org/2000/svg">
<circle cx="40" cy="40" r="40" fill="#F79E02"/>
<circle cx="26.7099" cy="26.7568" r="6.50677" stroke="white" stroke-width="2.5"/>
<path d="M30.2772 35.8852L30.2178 34.6366L29.9543 34.6491L29.7183 34.7671L30.2772 35.8852ZM22.9937 35.8852L23.5527 34.7671L23.3167 34.6491L23.0532 34.6366L22.9937 35.8852ZM26.4438 50.1688H26.8272V47.6688H26.4438V50.1688ZM26.8272 50.1688H36.4107V47.6688H26.8272V50.1688ZM36.4107 50.1688C37.2144 50.1688 38.3679 49.9122 39.3479 49.1282C40.3822 48.3008 41.1108 46.9735 41.1108 45.0854H38.6108C38.6108 46.2641 38.1894 46.8535 37.7862 47.1761C37.3286 47.5421 36.7571 47.6688 36.4107 47.6688V50.1688ZM41.1108 45.0854C41.1108 43.043 40.7092 40.3344 39.0909 38.1581C37.4115 35.8995 34.5841 34.4287 30.2178 34.6366L30.3367 37.1338C34.0205 36.9583 35.985 38.1708 37.0848 39.6499C38.2458 41.2112 38.6108 43.2944 38.6108 45.0854H41.1108ZM29.7183 34.7671C28.8379 35.2073 27.4077 35.3776 26.6016 35.3995L26.6694 37.8986C27.563 37.8743 29.4488 37.6969 30.8362 37.0032L29.7183 34.7671ZM26.6016 35.3995C26.5422 35.4011 26.4894 35.4018 26.4438 35.4018V37.9018C26.5142 37.9018 26.5897 37.9007 26.6694 37.8986L26.6016 35.3995ZM26.4438 47.6688H16.8602V50.1688H26.4438V47.6688ZM16.8602 47.6688C16.5139 47.6688 15.9424 47.5421 15.4848 47.1761C15.0816 46.8535 14.6602 46.2641 14.6602 45.0854H12.1602C12.1602 46.9735 12.8888 48.3008 13.9231 49.1282C14.903 49.9122 16.0566 50.1688 16.8602 50.1688V47.6688ZM14.6602 45.0854C14.6602 43.2944 15.0252 41.2112 16.1862 39.6499C17.286 38.1708 19.2504 36.9583 22.9343 37.1338L23.0532 34.6366C18.6868 34.4287 15.8595 35.8995 14.18 38.1581C12.5618 40.3344 12.1602 43.043 12.1602 45.0854H14.6602ZM22.4347 37.0032C23.8222 37.6969 25.7079 37.8743 26.6016 37.8986L26.6694 35.3995C25.8633 35.3776 24.4331 35.2073 23.5527 34.7671L22.4347 37.0032ZM26.6016 37.8986C26.6813 37.9007 26.7568 37.9018 26.8272 37.9018V35.4018C26.7816 35.4018 26.7288 35.4011 26.6694 35.3995L26.6016 37.8986Z" fill="white"/>
<circle cx="53.3036" cy="26.7568" r="6.50677" stroke="white" stroke-width="2.5"/>
<path d="M56.8749 35.8853L56.8154 34.6367L56.5519 34.6493L56.3159 34.7672L56.8749 35.8853ZM49.5914 35.8853L50.1504 34.7672L49.9144 34.6493L49.6508 34.6367L49.5914 35.8853ZM53.0415 50.1689H53.4248V47.6689H53.0415V50.1689ZM53.4248 50.1689H63.0084V47.6689H53.4248V50.1689ZM63.0084 50.1689C63.812 50.1689 64.9656 49.9123 65.9456 49.1283C66.9799 48.3009 67.7085 46.9736 67.7085 45.0855H65.2085C65.2085 46.2642 64.787 46.8536 64.3838 47.1762C63.9263 47.5422 63.3548 47.6689 63.0084 47.6689V50.1689ZM67.7085 45.0855C67.7085 43.0431 67.3068 40.3345 65.6886 38.1582C64.0091 35.8997 61.1818 34.4288 56.8154 34.6367L56.9344 37.1339C60.6182 36.9585 62.5826 38.171 63.6824 39.65C64.8434 41.2113 65.2085 43.2945 65.2085 45.0855H67.7085ZM56.3159 34.7672C55.4355 35.2074 54.0053 35.3777 53.1992 35.3996L53.267 37.8987C54.1607 37.8744 56.0465 37.697 57.4339 37.0033L56.3159 34.7672ZM53.1992 35.3996C53.1398 35.4012 53.0871 35.4019 53.0415 35.4019V37.9019C53.1119 37.9019 53.1873 37.9008 53.267 37.8987L53.1992 35.3996ZM53.0415 47.6689H43.4579V50.1689H53.0415V47.6689ZM43.4579 47.6689C43.1115 47.6689 42.54 47.5422 42.0825 47.1762C41.6792 46.8536 41.2578 46.2642 41.2578 45.0855H38.7578C38.7578 46.9736 39.4864 48.3009 40.5207 49.1283C41.5007 49.9123 42.6542 50.1689 43.4579 50.1689V47.6689ZM41.2578 45.0855C41.2578 43.2945 41.6229 41.2113 42.7839 39.65C43.8836 38.171 45.8481 36.9585 49.5319 37.1339L49.6508 34.6367C45.2845 34.4288 42.4571 35.8997 40.7777 38.1582C39.1594 40.3345 38.7578 43.0431 38.7578 45.0855H41.2578ZM49.0324 37.0033C50.4198 37.697 52.3056 37.8744 53.1992 37.8987L53.267 35.3996C52.461 35.3777 51.0308 35.2074 50.1504 34.7672L49.0324 37.0033ZM53.1992 37.8987C53.2789 37.9008 53.3544 37.9019 53.4248 37.9019V35.4019C53.3792 35.4019 53.3264 35.4012 53.267 35.3996L53.1992 37.8987Z" fill="white"/>
<circle cx="40.0068" cy="35.8378" r="6.50677" fill="#F79E02" stroke="white" stroke-width="2.5"/>
<path d="M40.124 58H39.7407H30.1571C29.0071 58 26.707 57.2333 26.707 54.1666C26.707 50.3331 28.2404 44.583 36.2906 44.9663C37.4245 45.5332 39.0825 45.7071 39.9324 45.7302C40.7822 45.7071 42.4402 45.5332 43.5741 44.9663C51.6243 44.583 53.1577 50.3331 53.1577 54.1666C53.1577 57.2333 50.8576 58 49.7076 58H40.124Z" fill="#F79E02"/>
<path d="M43.5741 44.9663L43.5147 43.7178L43.2511 43.7303L43.0151 43.8483L43.5741 44.9663ZM36.2906 44.9663L36.8496 43.8483L36.6136 43.7303L36.3501 43.7178L36.2906 44.9663ZM39.7407 59.25H40.124V56.75H39.7407V59.25ZM40.124 59.25H49.7076V56.75H40.124V59.25ZM49.7076 59.25C50.5113 59.25 51.6648 58.9934 52.6448 58.2094C53.6791 57.382 54.4077 56.0546 54.4077 54.1666H51.9077C51.9077 55.3453 51.4863 55.9346 51.083 56.2572C50.6255 56.6233 50.054 56.75 49.7076 56.75V59.25ZM54.4077 54.1666C54.4077 52.1242 54.0061 49.4156 52.3878 47.2393C50.7084 44.9807 47.881 43.5098 43.5147 43.7178L43.6336 46.2149C47.3174 46.0395 49.2819 47.252 50.3816 48.731C51.5426 50.2924 51.9077 52.3755 51.9077 54.1666H54.4077ZM43.0151 43.8483C42.1347 44.2885 40.7045 44.4588 39.8985 44.4807L39.9663 46.9797C40.8599 46.9555 42.7457 46.778 44.1331 46.0844L43.0151 43.8483ZM39.8985 44.4807C39.8391 44.4823 39.7863 44.483 39.7407 44.483V46.983C39.8111 46.983 39.8866 46.9819 39.9663 46.9797L39.8985 44.4807ZM39.7407 56.75H30.1571V59.25H39.7407V56.75ZM30.1571 56.75C29.8107 56.75 29.2392 56.6233 28.7817 56.2572C28.3785 55.9346 27.957 55.3453 27.957 54.1666H25.457C25.457 56.0546 26.1856 57.382 27.2199 58.2094C28.1999 58.9934 29.3535 59.25 30.1571 59.25V56.75ZM27.957 54.1666C27.957 52.3755 28.3221 50.2924 29.4831 48.731C30.5829 47.252 32.5473 46.0395 36.2311 46.2149L36.3501 43.7178C31.9837 43.5098 29.1564 44.9807 27.4769 47.2393C25.8587 49.4156 25.457 52.1242 25.457 54.1666H27.957ZM35.7316 46.0844C37.119 46.778 39.0048 46.9555 39.8985 46.9797L39.9663 44.4807C39.1602 44.4588 37.73 44.2885 36.8496 43.8483L35.7316 46.0844ZM39.8985 46.9797C39.9782 46.9819 40.0536 46.983 40.124 46.983V44.483C40.0784 44.483 40.0257 44.4823 39.9663 44.4807L39.8985 46.9797Z" fill="white"/>
</svg>
