<svg width="80" height="80" viewBox="0 0 80 80" fill="none" xmlns="http://www.w3.org/2000/svg">
<circle cx="40" cy="40" r="40" fill="white"/>
<circle cx="36" cy="28" r="8.5" stroke="black" stroke-width="3"/>
<path d="M42 40.0238L41.9287 38.5255L41.6124 38.5405L41.3292 38.6821L42 40.0238ZM32.5 40.0238L33.1708 38.6821L32.8876 38.5405L32.5713 38.5255L32.5 40.0238ZM37 58.5238H37.5V55.5238H37V58.5238ZM37.5 58.5238H50V55.5238H37.5V58.5238ZM50 58.5238C51.0244 58.5238 52.4986 58.1958 53.7495 57.1951C55.0657 56.1422 56 54.4494 56 52.0238H53C53 53.5981 52.4343 54.4054 51.8755 54.8525C51.2514 55.3517 50.4756 55.5238 50 55.5238V58.5238ZM56 52.0238C56 49.373 55.4781 45.8727 53.3912 43.0662C51.2309 40.161 47.5882 38.256 41.9287 38.5255L42.0713 41.5221C46.9118 41.2916 49.5191 42.8865 50.9838 44.8563C52.5219 46.9248 53 49.6746 53 52.0238H56ZM41.3292 38.6821C40.1545 39.2694 38.2653 39.492 37.2093 39.5206L37.2907 42.5195C38.4517 42.488 40.8876 42.2569 42.6708 41.3654L41.3292 38.6821ZM37.2093 39.5206C37.1308 39.5228 37.0608 39.5237 37 39.5237V42.5237C37.0905 42.5237 37.1878 42.5223 37.2907 42.5195L37.2093 39.5206ZM37 55.5238H24.5V58.5238H37V55.5238ZM24.5 55.5238C24.0244 55.5238 23.2486 55.3517 22.6245 54.8525C22.0657 54.4054 21.5 53.5981 21.5 52.0238H18.5C18.5 54.4494 19.4343 56.1422 20.7505 57.1951C22.0014 58.1958 23.4756 58.5238 24.5 58.5238V55.5238ZM21.5 52.0238C21.5 49.6746 21.9781 46.9248 23.5162 44.8563C24.9809 42.8865 27.5882 41.2916 32.4287 41.5221L32.5713 38.5255C26.9118 38.256 23.2691 40.161 21.1088 43.0662C19.0219 45.8727 18.5 49.373 18.5 52.0238H21.5ZM31.8292 41.3654C33.6124 42.2569 36.0483 42.488 37.2093 42.5195L37.2907 39.5206C36.2347 39.492 34.3455 39.2694 33.1708 38.6821L31.8292 41.3654ZM37.2093 42.5195C37.3122 42.5223 37.4095 42.5237 37.5 42.5237V39.5237C37.4392 39.5237 37.3692 39.5228 37.2907 39.5206L37.2093 42.5195Z" fill="black"/>
<rect x="55.5" y="23" width="4" height="17" rx="2" fill="black"/>
<rect x="49" y="33.5" width="4" height="17" rx="2" transform="rotate(-90 49 33.5)" fill="black"/>
</svg>
