<svg width="80" height="80" viewBox="0 0 80 80" fill="none" xmlns="http://www.w3.org/2000/svg">
<circle cx="40" cy="40" r="40" fill="white"/>
<path d="M49 22L24.5 38L50.5 54" stroke="black" stroke-width="3"/>
<circle cx="51" cy="53" r="14.5" fill="white" stroke="black" stroke-width="3"/>
<circle cx="50.6126" cy="48.6126" r="3.6126" stroke="black" stroke-width="2"/>
<mask id="path-5-inside-1" fill="white">
<path d="M51.072 62H50.8414H45.0757C44.3838 62 43 61.5387 43 59.6937C43 57.3874 43.9225 53.9279 48.7657 54.1585C49.4479 54.4996 50.4454 54.6042 50.9567 54.6181C51.468 54.6042 52.4655 54.4996 53.1477 54.1585C57.9909 53.9279 58.9135 57.3874 58.9135 59.6937C58.9135 61.5387 57.5297 62 56.8378 62H51.072Z"/>
</mask>
<path d="M50.9567 54.6181L50.9839 53.6185L50.9567 53.6177L50.9296 53.6185L50.9567 54.6181ZM50.9296 53.6185C50.8959 53.6194 50.8664 53.6198 50.8414 53.6198V55.6198C50.8862 55.6198 50.9339 55.6191 50.9839 55.6177L50.9296 53.6185ZM50.9296 55.6177C50.9796 55.6191 51.0272 55.6198 51.072 55.6198V53.6198C51.0471 53.6198 51.0176 53.6194 50.9839 53.6185L50.9296 55.6177ZM53.1477 54.1585L53.0526 52.1608L52.6309 52.1809L52.2534 52.3697L53.1477 54.1585ZM50.9567 54.6181L50.9025 56.6174L50.9567 56.6188L51.011 56.6174L50.9567 54.6181ZM48.7657 54.1585L49.6601 52.3697L49.2825 52.1809L48.8609 52.1608L48.7657 54.1585ZM50.8414 64H51.072V60H50.8414V64ZM51.072 64H56.8378V60H51.072V64ZM56.8378 64C57.5496 64 58.5341 63.7807 59.3845 63.1004C60.3218 62.3506 60.9135 61.1837 60.9135 59.6937H56.9135C56.9135 59.9008 56.8759 59.9828 56.8724 59.9902C56.87 59.9954 56.8759 59.9848 56.8857 59.977C56.8886 59.9746 56.8777 59.9837 56.8489 59.9928C56.8152 60.0035 56.803 60 56.8378 60V64ZM60.9135 59.6937C60.9135 58.3394 60.6536 56.3976 59.4517 54.7814C58.152 53.0334 56.0202 52.0195 53.0526 52.1608L53.2428 56.1563C55.1185 56.067 55.8696 56.6675 56.2419 57.1682C56.7121 57.8005 56.9135 58.7416 56.9135 59.6937H60.9135ZM52.2534 52.3697C52.1564 52.4181 51.9483 52.487 51.6397 52.5416C51.3495 52.593 51.0715 52.6143 50.9025 52.6188L51.011 56.6174C51.5923 56.6016 52.9543 56.4913 54.0421 55.9474L52.2534 52.3697ZM50.8414 60H45.0757V64H50.8414V60ZM45.0757 60C45.1105 60 45.0983 60.0035 45.0646 59.9928C45.0358 59.9837 45.0248 59.9746 45.0278 59.977C45.0376 59.9848 45.0435 59.9954 45.041 59.9902C45.0376 59.9828 45 59.9008 45 59.6937H41C41 61.1837 41.5917 62.3506 42.529 63.1004C43.3794 63.7807 44.3639 64 45.0757 64V60ZM45 59.6937C45 58.7416 45.2014 57.8005 45.6716 57.1682C46.0439 56.6675 46.795 56.067 48.6706 56.1563L48.8609 52.1608C45.8933 52.0195 43.7615 53.0334 42.4617 54.7814C41.2599 56.3976 41 58.3394 41 59.6937H45ZM47.8714 55.9474C48.9592 56.4913 50.3211 56.6016 50.9025 56.6174L51.011 52.6188C50.8419 52.6143 50.564 52.593 50.2738 52.5416C49.9652 52.487 49.7571 52.4181 49.6601 52.3697L47.8714 55.9474Z" fill="black" mask="url(#path-5-inside-1)"/>
<circle cx="24" cy="38" r="11" fill="white" stroke="black" stroke-width="2"/>
<circle cx="23.5208" cy="34.6248" r="2.79815" stroke="black" stroke-width="1.5"/>
<mask id="path-9-inside-2" fill="white">
<path d="M24.053 44.9227H23.8756H19.4404C18.9082 44.9227 17.8438 44.5679 17.8438 43.1487C17.8438 41.3746 18.5534 38.7135 22.2789 38.8909C22.8037 39.1532 23.571 39.2337 23.9643 39.2444C24.3576 39.2337 25.1249 39.1532 25.6497 38.8909C29.3752 38.7135 30.0849 41.3746 30.0849 43.1487C30.0849 44.5679 29.0204 44.9227 28.4882 44.9227H24.053Z"/>
</mask>
<path d="M23.9643 39.2444L23.9847 38.4947L23.9643 38.4941L23.944 38.4947L23.9643 39.2444ZM23.944 38.4947C23.9179 38.4954 23.895 38.4957 23.8756 38.4957V39.9957C23.9099 39.9957 23.9464 39.9951 23.9847 39.9941L23.944 38.4947ZM23.944 39.9941C23.9822 39.9951 24.0187 39.9957 24.053 39.9957V38.4957C24.0336 38.4957 24.0107 38.4954 23.9847 38.4947L23.944 39.9941ZM25.6497 38.8909L25.5783 37.3926L25.2621 37.4076L24.9789 37.5492L25.6497 38.8909ZM23.9643 39.2444L23.9236 40.7438L23.9643 40.7449L24.005 40.7438L23.9643 39.2444ZM22.2789 38.8909L22.9497 37.5492L22.6665 37.4076L22.3503 37.3926L22.2789 38.8909ZM23.8756 46.4227H24.053V43.4227H23.8756V46.4227ZM24.053 46.4227H28.4882V43.4227H24.053V46.4227ZM28.4882 46.4227C29.0287 46.4227 29.7771 46.2561 30.4232 45.7392C31.1345 45.1702 31.5849 44.2839 31.5849 43.1487H28.5849C28.5849 43.3129 28.555 43.3816 28.5497 43.3929C28.5462 43.4005 28.5448 43.4016 28.5465 43.3994C28.548 43.3975 28.5493 43.3964 28.5491 43.3966C28.5471 43.3982 28.5344 43.4072 28.5084 43.4154C28.4788 43.4248 28.4654 43.4227 28.4882 43.4227V46.4227ZM31.5849 43.1487C31.5849 42.1108 31.3855 40.6267 30.4681 39.3929C29.4772 38.0603 27.8506 37.2844 25.5783 37.3926L25.721 40.3892C27.1743 40.32 27.7654 40.7859 28.0607 41.183C28.4294 41.6789 28.5849 42.4124 28.5849 43.1487H31.5849ZM24.9789 37.5492C24.8996 37.5889 24.7355 37.6426 24.4964 37.685C24.2711 37.7248 24.0553 37.7414 23.9236 37.7449L24.005 40.7438C24.4508 40.7317 25.4915 40.647 26.3205 40.2325L24.9789 37.5492ZM23.8756 43.4227H19.4404V46.4227H23.8756V43.4227ZM19.4404 43.4227C19.4632 43.4227 19.4499 43.4248 19.4203 43.4154C19.3943 43.4072 19.3815 43.3982 19.3795 43.3966C19.3793 43.3964 19.3806 43.3975 19.3821 43.3994C19.3839 43.4016 19.3824 43.4005 19.3789 43.3929C19.3736 43.3816 19.3438 43.3129 19.3438 43.1487H16.3438C16.3438 44.2839 16.7942 45.1702 17.5055 45.7392C18.1515 46.2561 18.8999 46.4227 19.4404 46.4227V43.4227ZM19.3438 43.1487C19.3438 42.4124 19.4992 41.6789 19.868 41.183C20.1633 40.7859 20.7543 40.32 22.2076 40.3892L22.3503 37.3926C20.078 37.2844 18.4515 38.0603 17.4606 39.3929C16.5431 40.6267 16.3438 42.1108 16.3438 43.1487H19.3438ZM21.6082 40.2325C22.4371 40.647 23.4778 40.7317 23.9236 40.7438L24.005 37.7449C23.8733 37.7414 23.6576 37.7248 23.4323 37.685C23.1931 37.6426 23.029 37.5889 22.9497 37.5492L21.6082 40.2325Z" fill="black" mask="url(#path-9-inside-2)"/>
<circle cx="49" cy="22" r="6.5" fill="white" stroke="black"/>
<circle cx="48.7109" cy="19.4748" r="1.62889" stroke="black"/>
<mask id="path-13-inside-3" fill="white">
<path d="M49.0302 25.6536H48.9238H46.2627C45.9434 25.6536 45.3047 25.4407 45.3047 24.5891C45.3047 23.5247 45.7305 21.928 47.9658 22.0345C48.2807 22.1919 48.741 22.2402 48.977 22.2466C49.213 22.2402 49.6734 22.1919 49.9882 22.0345C52.2236 21.928 52.6494 23.5247 52.6494 24.5891C52.6494 25.4407 52.0107 25.6536 51.6914 25.6536H49.0302Z"/>
</mask>
<path d="M48.977 22.2466L48.9906 21.7468L48.977 21.7464L48.9635 21.7468L48.977 22.2466ZM48.9635 21.7468C48.9482 21.7472 48.9349 21.7473 48.9238 21.7473V22.7473C48.9449 22.7473 48.9672 22.747 48.9906 22.7464L48.9635 21.7468ZM48.9635 22.7464C48.9868 22.747 49.0092 22.7473 49.0302 22.7473V21.7473C49.0191 21.7473 49.0058 21.7472 48.9906 21.7468L48.9635 22.7464ZM49.9882 22.0345L49.9407 21.0356L49.7299 21.0457L49.5411 21.14L49.9882 22.0345ZM48.977 22.2466L48.9499 23.2462L48.977 23.247L49.0042 23.2462L48.977 22.2466ZM47.9658 22.0345L48.413 21.14L48.2242 21.0457L48.0134 21.0356L47.9658 22.0345ZM48.9238 26.6536H49.0302V24.6536H48.9238V26.6536ZM49.0302 26.6536H51.6914V24.6536H49.0302V26.6536ZM51.6914 26.6536C52.0339 26.6536 52.5063 26.5484 52.9148 26.2216C53.3668 25.86 53.6494 25.2987 53.6494 24.5891H51.6494C51.6494 24.633 51.6453 24.6612 51.6421 24.6765C51.639 24.6916 51.6363 24.6963 51.6376 24.6936C51.6388 24.6909 51.6422 24.6848 51.6481 24.6773C51.6539 24.67 51.66 24.6641 51.6654 24.6598C51.6752 24.652 51.6789 24.6521 51.6732 24.6539C51.671 24.6546 51.6696 24.6548 51.6702 24.6547C51.6704 24.6547 51.677 24.6536 51.6914 24.6536V26.6536ZM53.6494 24.5891C53.6494 23.9564 53.5283 23.0409 52.9595 22.276C52.3418 21.4453 51.3314 20.9694 49.9407 21.0356L50.0358 23.0333C50.8805 22.9931 51.2006 23.2623 51.3546 23.4694C51.5575 23.7424 51.6494 24.1575 51.6494 24.5891H53.6494ZM49.5411 21.14C49.5057 21.1577 49.4178 21.1879 49.2788 21.2125C49.1491 21.2354 49.0246 21.2449 48.9499 21.247L49.0042 23.2462C49.2752 23.2389 49.9178 23.1877 50.4354 22.9289L49.5411 21.14ZM48.9238 24.6536H46.2627V26.6536H48.9238V24.6536ZM46.2627 24.6536C46.2771 24.6536 46.2837 24.6547 46.2838 24.6547C46.2844 24.6548 46.2831 24.6546 46.2809 24.6539C46.2752 24.6521 46.2789 24.652 46.2886 24.6598C46.294 24.6641 46.3001 24.67 46.3059 24.6773C46.3119 24.6848 46.3152 24.6909 46.3165 24.6936C46.3177 24.6963 46.3151 24.6916 46.312 24.6765C46.3088 24.6612 46.3047 24.633 46.3047 24.5891H44.3047C44.3047 25.2987 44.5872 25.86 45.0392 26.2216C45.4478 26.5484 45.9201 26.6536 46.2627 26.6536V24.6536ZM46.3047 24.5891C46.3047 24.1575 46.3965 23.7424 46.5995 23.4694C46.7535 23.2623 47.0736 22.9931 47.9182 23.0333L48.0134 21.0356C46.6227 20.9694 45.6123 21.4453 44.9945 22.276C44.4258 23.0409 44.3047 23.9564 44.3047 24.5891H46.3047ZM47.5186 22.9289C48.0363 23.1877 48.6789 23.2389 48.9499 23.2462L49.0042 21.247C48.9295 21.2449 48.805 21.2354 48.6752 21.2125C48.5362 21.1879 48.4484 21.1577 48.413 21.14L47.5186 22.9289Z" fill="black" mask="url(#path-13-inside-3)"/>
</svg>
