<svg width="106" height="105" viewBox="0 0 106 105" fill="none" xmlns="http://www.w3.org/2000/svg">
<circle cx="53.4395" cy="52.5" r="49.5" stroke="black" stroke-width="6"/>
<rect x="43.2889" y="32" width="32.7111" height="20.5747" fill="#F79E02"/>
<path d="M34.6 36.1086V56.9052L31.1025 60.4534C30.4021 61.1512 30.0058 62.0975 30 63.0861C30.0048 64.0631 30.3951 64.9986 31.0859 65.6894C31.7767 66.3802 32.7123 66.7705 33.6892 66.7753H69.2441C70.2211 66.7705 71.1566 66.3802 71.8475 65.6894C72.5383 64.9986 72.9285 64.0631 72.9333 63.0861C72.9273 62.0966 72.5312 61.1494 71.8309 60.4503L68.3333 56.9037V36.1086H34.6ZM37.6667 39.1753H65.2667V56.042H37.6667V39.1753ZM51.4667 40.7086L49.1667 54.5086H51.4667L53.7667 40.7086H51.4667ZM45.4652 43.7753L42.8294 46.9462L42.2667 47.6086L42.8294 48.271L45.4652 51.442L47.1304 50.1187L45.042 47.6086L47.1273 45.0986L45.4667 43.7753H45.4652ZM57.4681 43.7753L55.8029 45.0986L57.8913 47.6086L55.806 50.1187L57.4697 51.442L60.1055 48.271L60.6667 47.6086L60.1039 46.9462L57.4681 43.7753ZM36.8034 59.1086H66.1284L69.675 62.6062C69.7968 62.7365 69.8652 62.9078 69.8667 63.0861C69.8711 63.169 69.858 63.2519 69.8283 63.3295C69.7986 63.407 69.7529 63.4774 69.6942 63.5361C69.6354 63.5948 69.565 63.6405 69.4875 63.6703C69.41 63.7 69.327 63.7131 69.2441 63.7086H33.6892C33.6063 63.7131 33.5234 63.7 33.4458 63.6703C33.3683 63.6405 33.2979 63.5948 33.2392 63.5361C33.1805 63.4774 33.1348 63.407 33.105 63.3295C33.0753 63.2519 33.0622 63.169 33.0667 63.0861C33.0667 62.9174 33.1387 62.7273 33.2583 62.6062L36.8049 59.1086H36.8034Z" fill="black"/>
</svg>
