<svg width="106" height="105" viewBox="0 0 106 105" fill="none" xmlns="http://www.w3.org/2000/svg">
<circle cx="53.4121" cy="52.5" r="49.5" stroke="black" stroke-width="6"/>
<ellipse cx="45.072" cy="38.4302" rx="8.78122" ry="8.43024" fill="#F79E02"/>
<path d="M63.1993 56.5407C61.1044 56.5427 59.0661 57.2203 57.3872 58.4727L51.5196 52.6072C52.7873 50.9411 53.4713 48.9043 53.4662 46.8111C53.4717 44.619 52.7365 42.4893 51.3798 40.7671C50.0231 39.045 48.1243 37.8312 45.9913 37.3226C43.8583 36.814 41.6159 37.0404 39.6277 37.965C37.6394 38.8896 36.0218 40.4583 35.0369 42.4169C34.052 44.3754 33.7576 46.6091 34.2014 48.7558C34.6452 50.9025 35.8012 52.8365 37.482 54.2444C39.1628 55.6523 41.2699 56.4515 43.462 56.5126C45.654 56.5737 47.8024 55.893 49.559 54.5809L55.4128 60.4464C54.1006 62.202 53.4197 64.349 53.4803 66.5396C53.541 68.7302 54.3397 70.8363 55.7471 72.5165C57.1545 74.1968 59.0882 75.3529 61.2348 75.7975C63.3815 76.2422 65.6155 75.9494 67.5749 74.9665C69.5343 73.9837 71.1044 72.3683 72.0309 70.3822C72.9574 68.396 73.186 66.1553 72.6796 64.0231C72.1733 61.8908 70.9617 59.9919 69.2411 58.6339C67.5204 57.2759 65.3916 56.5384 63.1993 56.5407ZM36.7809 46.8111C36.7809 45.4366 37.1886 44.0929 37.9525 42.95C38.7164 41.8071 39.8022 40.9164 41.0726 40.3904C42.3429 39.8644 43.7408 39.7267 45.0894 39.9949C46.438 40.263 47.6768 40.9249 48.649 41.8969C49.6213 42.8688 50.2835 44.1071 50.5517 45.4553C50.82 46.8034 50.6823 48.2007 50.1561 49.4706C49.6299 50.7405 48.7388 51.8259 47.5955 52.5896C46.4522 53.3532 45.1081 53.7608 43.7331 53.7608C41.8892 53.7608 40.1209 53.0286 38.8171 51.7253C37.5133 50.422 36.7809 48.6543 36.7809 46.8111Z" fill="black"/>
</svg>
