<svg width="110" height="103" viewBox="0 0 110 103" fill="none" xmlns="http://www.w3.org/2000/svg">
<ellipse cx="44.8883" cy="39.2402" rx="9.48206" ry="7.40235" fill="#F79E02"/>
<path d="M64.4594 50.9858C62.1974 50.9875 59.9964 51.5824 58.1835 52.6822L51.8475 47.5318C53.2164 46.0689 53.9551 44.2805 53.9495 42.4425C53.9554 40.5177 53.1616 38.6477 51.6966 37.1355C50.2316 35.6234 48.1813 34.5576 45.878 34.1111C43.5748 33.6645 41.1535 33.8632 39.0065 34.6751C36.8596 35.487 35.1129 36.8644 34.0494 38.5841C32.9859 40.3039 32.668 42.2651 33.1472 44.1501C33.6264 46.0351 34.8746 47.7333 36.6896 48.9695C38.5045 50.2057 40.7799 50.9075 43.1468 50.9611C45.5138 51.0147 47.8337 50.417 49.7305 49.2649L56.0515 54.4152C54.6345 55.9567 53.8992 57.8419 53.9648 59.7654C54.0303 61.689 54.8928 63.5382 56.4125 65.0136C57.9322 66.4889 60.0202 67.5041 62.3382 67.8945C64.6562 68.2849 67.0684 68.0278 69.1842 67.1648C71.3001 66.3018 72.9955 64.8834 73.9959 63.1394C74.9963 61.3955 75.2431 59.428 74.6964 57.5558C74.1496 55.6835 72.8413 54.0162 70.9834 52.8237C69.1254 51.6313 66.8266 50.9837 64.4594 50.9858ZM35.9325 42.4425C35.9325 41.2356 36.3728 40.0558 37.1977 39.0523C38.0226 38.0487 39.195 37.2666 40.5667 36.8047C41.9385 36.3429 43.4479 36.222 44.9041 36.4575C46.3604 36.6929 47.698 37.2741 48.7479 38.1275C49.7978 38.981 50.5128 40.0683 50.8024 41.252C51.0921 42.4358 50.9434 43.6627 50.3752 44.7778C49.807 45.8928 48.8448 46.8459 47.6103 47.5164C46.3758 48.1869 44.9243 48.5448 43.4396 48.5448C41.4486 48.5448 39.5391 47.9019 38.1313 46.7575C36.7234 45.6131 35.9325 44.061 35.9325 42.4425Z" fill="black"/>
<path d="M106.283 51.1836C106.283 77.6129 83.3505 99.3672 54.6417 99.3672C25.933 99.3672 3 77.6129 3 51.1836C3 24.7543 25.933 3 54.6417 3C83.3505 3 106.283 24.7543 106.283 51.1836Z" stroke="black" stroke-width="6"/>
</svg>
