<svg width="109" height="103" viewBox="0 0 109 103" fill="none" xmlns="http://www.w3.org/2000/svg">
<rect x="41.9258" y="29.6816" width="41.5179" height="24.3959" fill="#F79E02"/>
<path d="M30.8971 34.5547V59.2138L26.4579 63.4209C25.5689 64.2483 25.066 65.3703 25.0586 66.5426C25.0647 67.701 25.56 68.8103 26.4368 69.6294C27.3136 70.4485 28.5011 70.9113 29.741 70.917H74.8684C76.1084 70.9113 77.2958 70.4485 78.1726 69.6294C79.0494 68.8103 79.5447 67.701 79.5509 66.5426C79.5432 65.3693 79.0404 64.2462 78.1516 63.4173L73.7124 59.212V34.5547H30.8971ZM34.7894 38.1909H69.8201V58.1902H34.7894V38.1909ZM52.3047 40.009L49.3855 56.3721H52.3047L55.224 40.009H52.3047ZM44.6875 43.6453L41.3421 47.4051L40.6278 48.1905L41.3421 48.976L44.6875 52.7358L46.801 51.1668L44.1504 48.1905L46.7971 45.2143L44.6894 43.6453H44.6875ZM59.922 43.6453L57.8084 45.2143L60.4591 48.1905L57.8123 51.1668L59.9239 52.7358L63.2694 48.976L63.9816 48.1905L63.2674 47.4051L59.922 43.6453ZM33.6937 61.8264H70.9138L75.4153 65.9735C75.5699 66.128 75.6567 66.3311 75.6586 66.5426C75.6642 66.6409 75.6476 66.7392 75.6099 66.8312C75.5721 66.9231 75.5141 67.0066 75.4396 67.0762C75.3651 67.1458 75.2757 67.2 75.1773 67.2353C75.0789 67.2705 74.9737 67.286 74.8684 67.2808H29.741C29.6358 67.286 29.5306 67.2705 29.4322 67.2353C29.3337 67.2 29.2444 67.1458 29.1699 67.0762C29.0953 67.0066 29.0373 66.9231 28.9996 66.8312C28.9619 66.7392 28.9453 66.6409 28.9509 66.5426C28.9509 66.3426 29.0424 66.1172 29.1942 65.9735L33.6956 61.8264H33.6937Z" fill="black"/>
<path d="M106 51.0508C106 77.4068 83.1304 99.1016 54.5 99.1016C25.8696 99.1016 3 77.4068 3 51.0508C3 24.6948 25.8696 3 54.5 3C83.1304 3 106 24.6948 106 51.0508Z" stroke="black" stroke-width="6"/>
</svg>
