<svg width="105" height="105" viewBox="0 0 105 105" fill="none" xmlns="http://www.w3.org/2000/svg">
<ellipse cx="48.6746" cy="45" rx="12.6746" ry="13" fill="#F79E02"/>
<path d="M60.1584 60.0869H58.442L57.8336 59.5485C59.9628 57.2755 61.2447 54.3246 61.2447 51.1145C61.2447 43.9565 54.9222 38.1543 47.1224 38.1543C39.3225 38.1543 33 43.9565 33 51.1145C33 58.2725 39.3225 64.0746 47.1224 64.0746C50.6204 64.0746 53.8359 62.8982 56.3127 60.9442L56.8994 61.5025V63.0777L67.7627 73.0271L71 70.0562L60.1584 60.0869ZM47.1224 60.0869C41.7124 60.0869 37.3453 56.0792 37.3453 51.1145C37.3453 46.1497 41.7124 42.142 47.1224 42.142C52.5323 42.142 56.8994 46.1497 56.8994 51.1145C56.8994 56.0792 52.5323 60.0869 47.1224 60.0869Z" fill="black"/>
<circle cx="52.5" cy="52.5" r="49.5" stroke="black" stroke-width="6"/>
</svg>
