<svg width="106" height="99" viewBox="0 0 106 99" fill="none" xmlns="http://www.w3.org/2000/svg">
<ellipse cx="50" cy="41.3337" rx="13" ry="13.3337" fill="#F79E02"/>
<path d="M61.1584 56.0869H59.442L58.8336 55.5485C60.9628 53.2755 62.2447 50.3246 62.2447 47.1145C62.2447 39.9565 55.9222 34.1543 48.1224 34.1543C40.3225 34.1543 34 39.9565 34 47.1145C34 54.2725 40.3225 60.0746 48.1224 60.0746C51.6204 60.0746 54.8359 58.8982 57.3128 56.9442L57.8994 57.5025V59.0777L68.7627 69.0271L72 66.0562L61.1584 56.0869V56.0869ZM48.1224 56.0869C42.7124 56.0869 38.3453 52.0792 38.3453 47.1145C38.3453 42.1497 42.7124 38.142 48.1224 38.142C53.5323 38.142 57.8994 42.1497 57.8994 47.1145C57.8994 52.0792 53.5323 56.0869 48.1224 56.0869Z" fill="black"/>
<path d="M102.185 49.2642C102.185 74.6335 80.1697 95.5284 52.5927 95.5284C25.0156 95.5284 3 74.6335 3 49.2642C3 23.8949 25.0156 3 52.5927 3C80.1697 3 102.185 23.8949 102.185 49.2642Z" stroke="black" stroke-width="6"/>
</svg>
