<svg width="109" height="103" viewBox="0 0 109 103" fill="none" xmlns="http://www.w3.org/2000/svg">
<path d="M37.7266 55.4298V45.1927L71.9547 36.418V64.5701L37.7266 55.4298Z" fill="#F79E02"/>
<g clip-path="url(#clip0)">
<path d="M64.1655 67.2171C64.0338 67.2171 63.9042 67.1948 63.7768 67.1502L35.699 57.0148C35.2821 56.8648 35.0078 56.4878 35.0078 56.0682V43.9057C35.0078 43.4861 35.2821 43.1091 35.699 42.9591L63.7768 32.8237C64.1115 32.7021 64.4809 32.7467 64.7768 32.9352C65.0705 33.1237 65.2454 33.4359 65.2454 33.7704V66.2035C65.2454 66.538 65.0705 66.8502 64.7768 67.0387C64.5932 67.1562 64.3815 67.2171 64.1655 67.2171ZM37.1676 55.3708L63.0856 64.7278V35.2461L37.1676 44.603V55.3708Z" fill="black"/>
<path d="M36.09 57.0821H28.5306C26.1483 57.0821 24.2109 55.2638 24.2109 53.0279V46.9467C24.2109 44.7109 26.1483 42.8926 28.5306 42.8926H36.09C36.6861 42.8926 37.1699 43.3466 37.1699 43.9061V56.0685C37.1699 56.628 36.6861 57.0821 36.09 57.0821ZM28.5306 44.9196C27.3384 44.9196 26.3708 45.8278 26.3708 46.9467V53.0279C26.3708 54.1469 27.3384 55.055 28.5306 55.055H35.0101V44.9196H28.5306Z" fill="black"/>
<path d="M40.4108 71.2712H33.9313C33.3935 71.2712 32.9378 70.9003 32.8622 70.3996L30.7024 56.2101C30.6181 55.6567 31.0285 55.1438 31.6203 55.0648C32.1991 54.9959 32.7564 55.3709 32.8406 55.9263L34.8687 69.2442H39.2013L37.7585 57.175C37.6937 56.6196 38.1192 56.1189 38.711 56.054C39.2834 55.9952 39.8363 56.3925 39.9054 56.9479L41.4821 70.1442C41.5166 70.432 41.4194 70.7178 41.2143 70.9327C41.0112 71.1476 40.7197 71.2712 40.4108 71.2712Z" fill="black"/>
<path d="M68.486 44.9195C68.1382 44.9195 67.797 44.7614 67.5875 44.4675C67.257 44.0033 67.3909 43.3729 67.8877 43.0627L74.3672 39.0086C74.8596 38.7005 75.5313 38.8221 75.864 39.2904C76.1944 39.7546 76.0605 40.385 75.5637 40.6951L69.0842 44.7493C68.9007 44.8648 68.6933 44.9195 68.486 44.9195Z" fill="black"/>
<path d="M74.9688 63.1632C74.7615 63.1632 74.5541 63.1084 74.3705 62.9929L67.891 58.9387C67.3964 58.6286 67.2604 57.9982 67.5908 57.534C67.9234 57.0677 68.5973 56.9441 69.0876 57.2522L75.5671 61.3064C76.0617 61.6165 76.1978 62.2469 75.8673 62.7111C75.6578 63.005 75.3165 63.1632 74.9688 63.1632Z" fill="black"/>
<path d="M74.9657 52.0144H68.4862C67.8901 52.0144 67.4062 51.5603 67.4062 51.0008C67.4062 50.4414 67.8901 49.9873 68.4862 49.9873H74.9657C75.5618 49.9873 76.0456 50.4414 76.0456 51.0008C76.0456 51.5603 75.5618 52.0144 74.9657 52.0144Z" fill="black"/>
</g>
<path d="M106 51.5C106 78.128 83.105 100 54.5 100C25.895 100 3 78.128 3 51.5C3 24.872 25.895 3 54.5 3C83.105 3 106 24.872 106 51.5Z" stroke="black" stroke-width="6"/>
<defs>
<clipPath id="clip0">
<rect width="51.8359" height="48.6497" fill="white" transform="translate(24.2109 26.6758)"/>
</clipPath>
</defs>
</svg>
