<svg width="49" height="81" viewBox="0 0 49 81" fill="none" xmlns="http://www.w3.org/2000/svg">
<path d="M36.3518 34.928C39.8078 35.7813 42.4531 37.3387 44.2878 39.6C46.1651 41.8187 47.1038 44.5067 47.1038 47.664C47.1038 50.352 46.3571 52.8693 44.8638 55.216C43.4131 57.52 41.1518 59.3973 38.0798 60.848C35.0078 62.2987 31.1891 63.024 26.6238 63.024C23.4664 63.024 20.3091 62.6827 17.1518 62C14.0371 61.3173 11.3064 60.3147 8.95975 58.992L14.0798 47.856C15.9144 48.9227 17.8771 49.7333 19.9678 50.288C22.1011 50.8427 24.1491 51.12 26.1118 51.12C27.8611 51.12 29.2691 50.8213 30.3358 50.224C31.4024 49.6267 31.9358 48.7733 31.9358 47.664C31.9358 45.616 30.1651 44.592 26.6238 44.592H20.6718V35.312L27.2638 28.592H11.2638V17.2H44.6718V26.48L36.3518 34.928Z" fill="#F9F9F9"/>
<path d="M36.3518 34.928C39.8078 35.7813 42.4531 37.3387 44.2878 39.6C46.1651 41.8187 47.1038 44.5067 47.1038 47.664C47.1038 50.352 46.3571 52.8693 44.8638 55.216C43.4131 57.52 41.1518 59.3973 38.0798 60.848C35.0078 62.2987 31.1891 63.024 26.6238 63.024C23.4664 63.024 20.3091 62.6827 17.1518 62C14.0371 61.3173 11.3064 60.3147 8.95975 58.992L14.0798 47.856C15.9144 48.9227 17.8771 49.7333 19.9678 50.288C22.1011 50.8427 24.1491 51.12 26.1118 51.12C27.8611 51.12 29.2691 50.8213 30.3358 50.224C31.4024 49.6267 31.9358 48.7733 31.9358 47.664C31.9358 45.616 30.1651 44.592 26.6238 44.592H20.6718V35.312L27.2638 28.592H11.2638V17.2H44.6718V26.48L36.3518 34.928Z" fill="#F9F9F9"/>
<path d="M36.3518 34.928C39.8078 35.7813 42.4531 37.3387 44.2878 39.6C46.1651 41.8187 47.1038 44.5067 47.1038 47.664C47.1038 50.352 46.3571 52.8693 44.8638 55.216C43.4131 57.52 41.1518 59.3973 38.0798 60.848C35.0078 62.2987 31.1891 63.024 26.6238 63.024C23.4664 63.024 20.3091 62.6827 17.1518 62C14.0371 61.3173 11.3064 60.3147 8.95975 58.992L14.0798 47.856C15.9144 48.9227 17.8771 49.7333 19.9678 50.288C22.1011 50.8427 24.1491 51.12 26.1118 51.12C27.8611 51.12 29.2691 50.8213 30.3358 50.224C31.4024 49.6267 31.9358 48.7733 31.9358 47.664C31.9358 45.616 30.1651 44.592 26.6238 44.592H20.6718V35.312L27.2638 28.592H11.2638V17.2H44.6718V26.48L36.3518 34.928Z" fill="#F8DFB1"/>
<path d="M28.3518 37.928C31.8078 38.7813 34.4531 40.3387 36.2878 42.6C38.1651 44.8187 39.1038 47.5067 39.1038 50.664C39.1038 53.352 38.3571 55.8693 36.8638 58.216C35.4131 60.52 33.1518 62.3973 30.0798 63.848C27.0078 65.2987 23.1891 66.024 18.6238 66.024C15.4664 66.024 12.3091 65.6827 9.15175 65C6.03708 64.3173 3.30642 63.3147 0.95975 61.992L6.07975 50.856C7.91442 51.9227 9.87708 52.7333 11.9678 53.288C14.1011 53.8427 16.1491 54.12 18.1118 54.12C19.8611 54.12 21.2691 53.8213 22.3358 53.224C23.4024 52.6267 23.9358 51.7733 23.9358 50.664C23.9358 48.616 22.1651 47.592 18.6238 47.592H12.6718V38.312L19.2638 31.592H3.26375V20.2H36.6718V29.48L28.3518 37.928Z" fill="#F9F9F9"/>
<path d="M28.3518 37.928C31.8078 38.7813 34.4531 40.3387 36.2878 42.6C38.1651 44.8187 39.1038 47.5067 39.1038 50.664C39.1038 53.352 38.3571 55.8693 36.8638 58.216C35.4131 60.52 33.1518 62.3973 30.0798 63.848C27.0078 65.2987 23.1891 66.024 18.6238 66.024C15.4664 66.024 12.3091 65.6827 9.15175 65C6.03708 64.3173 3.30642 63.3147 0.95975 61.992L6.07975 50.856C7.91442 51.9227 9.87708 52.7333 11.9678 53.288C14.1011 53.8427 16.1491 54.12 18.1118 54.12C19.8611 54.12 21.2691 53.8213 22.3358 53.224C23.4024 52.6267 23.9358 51.7733 23.9358 50.664C23.9358 48.616 22.1651 47.592 18.6238 47.592H12.6718V38.312L19.2638 31.592H3.26375V20.2H36.6718V29.48L28.3518 37.928Z" fill="#F9F9F9"/>
<path d="M28.3518 37.928C31.8078 38.7813 34.4531 40.3387 36.2878 42.6C38.1651 44.8187 39.1038 47.5067 39.1038 50.664C39.1038 53.352 38.3571 55.8693 36.8638 58.216C35.4131 60.52 33.1518 62.3973 30.0798 63.848C27.0078 65.2987 23.1891 66.024 18.6238 66.024C15.4664 66.024 12.3091 65.6827 9.15175 65C6.03708 64.3173 3.30642 63.3147 0.95975 61.992L6.07975 50.856C7.91442 51.9227 9.87708 52.7333 11.9678 53.288C14.1011 53.8427 16.1491 54.12 18.1118 54.12C19.8611 54.12 21.2691 53.8213 22.3358 53.224C23.4024 52.6267 23.9358 51.7733 23.9358 50.664C23.9358 48.616 22.1651 47.592 18.6238 47.592H12.6718V38.312L19.2638 31.592H3.26375V20.2H36.6718V29.48L28.3518 37.928Z" fill="black" fill-opacity="0.88"/>
</svg>
