<svg width="48" height="82" viewBox="0 0 48 82" fill="none" xmlns="http://www.w3.org/2000/svg">
<path d="M46.7273 50.288V62H10.8233V52.72L27.0153 37.744C28.4233 36.4213 29.3619 35.2907 29.8313 34.352C30.3006 33.4133 30.5353 32.496 30.5353 31.6C30.5353 30.4907 30.1513 29.6373 29.3833 29.04C28.6579 28.4 27.5913 28.08 26.1833 28.08C24.8179 28.08 23.5379 28.4427 22.3433 29.168C21.1486 29.8933 20.2313 30.9173 19.5913 32.24L8.19925 26.544C9.90592 23.344 12.4019 20.8267 15.6873 18.992C18.9726 17.1147 22.9406 16.176 27.5913 16.176C31.1326 16.176 34.2686 16.752 36.9993 17.904C39.7299 19.056 41.8633 20.6987 43.3993 22.832C44.9353 24.9653 45.7033 27.4187 45.7033 30.192C45.7033 32.6667 45.1699 34.992 44.1033 37.168C43.0793 39.3013 41.0526 41.7333 38.0233 44.464L31.6233 50.288H46.7273Z" fill="#F9F9F9"/>
<path d="M46.7273 50.288V62H10.8233V52.72L27.0153 37.744C28.4233 36.4213 29.3619 35.2907 29.8313 34.352C30.3006 33.4133 30.5353 32.496 30.5353 31.6C30.5353 30.4907 30.1513 29.6373 29.3833 29.04C28.6579 28.4 27.5913 28.08 26.1833 28.08C24.8179 28.08 23.5379 28.4427 22.3433 29.168C21.1486 29.8933 20.2313 30.9173 19.5913 32.24L8.19925 26.544C9.90592 23.344 12.4019 20.8267 15.6873 18.992C18.9726 17.1147 22.9406 16.176 27.5913 16.176C31.1326 16.176 34.2686 16.752 36.9993 17.904C39.7299 19.056 41.8633 20.6987 43.3993 22.832C44.9353 24.9653 45.7033 27.4187 45.7033 30.192C45.7033 32.6667 45.1699 34.992 44.1033 37.168C43.0793 39.3013 41.0526 41.7333 38.0233 44.464L31.6233 50.288H46.7273Z" fill="#F9F9F9"/>
<path d="M46.7273 50.288V62H10.8233V52.72L27.0153 37.744C28.4233 36.4213 29.3619 35.2907 29.8313 34.352C30.3006 33.4133 30.5353 32.496 30.5353 31.6C30.5353 30.4907 30.1513 29.6373 29.3833 29.04C28.6579 28.4 27.5913 28.08 26.1833 28.08C24.8179 28.08 23.5379 28.4427 22.3433 29.168C21.1486 29.8933 20.2313 30.9173 19.5913 32.24L8.19925 26.544C9.90592 23.344 12.4019 20.8267 15.6873 18.992C18.9726 17.1147 22.9406 16.176 27.5913 16.176C31.1326 16.176 34.2686 16.752 36.9993 17.904C39.7299 19.056 41.8633 20.6987 43.3993 22.832C44.9353 24.9653 45.7033 27.4187 45.7033 30.192C45.7033 32.6667 45.1699 34.992 44.1033 37.168C43.0793 39.3013 41.0526 41.7333 38.0233 44.464L31.6233 50.288H46.7273Z" fill="#F8DFB1"/>
<path d="M38.7273 54.288V66H2.82325V56.72L19.0153 41.744C20.4233 40.4213 21.3619 39.2907 21.8313 38.352C22.3006 37.4133 22.5353 36.496 22.5353 35.6C22.5353 34.4907 22.1513 33.6373 21.3833 33.04C20.6579 32.4 19.5913 32.08 18.1833 32.08C16.8179 32.08 15.5379 32.4427 14.3433 33.168C13.1486 33.8933 12.2313 34.9173 11.5913 36.24L0.19925 30.544C1.90592 27.344 4.40192 24.8267 7.68725 22.992C10.9726 21.1147 14.9406 20.176 19.5913 20.176C23.1326 20.176 26.2686 20.752 28.9993 21.904C31.7299 23.056 33.8633 24.6987 35.3993 26.832C36.9353 28.9653 37.7033 31.4187 37.7033 34.192C37.7033 36.6667 37.1699 38.992 36.1033 41.168C35.0793 43.3013 33.0526 45.7333 30.0233 48.464L23.6233 54.288H38.7273Z" fill="#F9F9F9"/>
<path d="M38.7273 54.288V66H2.82325V56.72L19.0153 41.744C20.4233 40.4213 21.3619 39.2907 21.8313 38.352C22.3006 37.4133 22.5353 36.496 22.5353 35.6C22.5353 34.4907 22.1513 33.6373 21.3833 33.04C20.6579 32.4 19.5913 32.08 18.1833 32.08C16.8179 32.08 15.5379 32.4427 14.3433 33.168C13.1486 33.8933 12.2313 34.9173 11.5913 36.24L0.19925 30.544C1.90592 27.344 4.40192 24.8267 7.68725 22.992C10.9726 21.1147 14.9406 20.176 19.5913 20.176C23.1326 20.176 26.2686 20.752 28.9993 21.904C31.7299 23.056 33.8633 24.6987 35.3993 26.832C36.9353 28.9653 37.7033 31.4187 37.7033 34.192C37.7033 36.6667 37.1699 38.992 36.1033 41.168C35.0793 43.3013 33.0526 45.7333 30.0233 48.464L23.6233 54.288H38.7273Z" fill="#F9F9F9"/>
<path d="M38.7273 54.288V66H2.82325V56.72L19.0153 41.744C20.4233 40.4213 21.3619 39.2907 21.8313 38.352C22.3006 37.4133 22.5353 36.496 22.5353 35.6C22.5353 34.4907 22.1513 33.6373 21.3833 33.04C20.6579 32.4 19.5913 32.08 18.1833 32.08C16.8179 32.08 15.5379 32.4427 14.3433 33.168C13.1486 33.8933 12.2313 34.9173 11.5913 36.24L0.19925 30.544C1.90592 27.344 4.40192 24.8267 7.68725 22.992C10.9726 21.1147 14.9406 20.176 19.5913 20.176C23.1326 20.176 26.2686 20.752 28.9993 21.904C31.7299 23.056 33.8633 24.6987 35.3993 26.832C36.9353 28.9653 37.7033 31.4187 37.7033 34.192C37.7033 36.6667 37.1699 38.992 36.1033 41.168C35.0793 43.3013 33.0526 45.7333 30.0233 48.464L23.6233 54.288H38.7273Z" fill="black" fill-opacity="0.88"/>
</svg>
